<?xml version="1.0" encoding="utf-8" ?>
<svg xmlns="http://www.w3.org/2000/svg" xmlns:xlink="http://www.w3.org/1999/xlink" width="437" height="437">
	<path fill="#64686C" transform="matrix(0.426758 0 0 0.426758 -3.05176e-05 3.05176e-05)" d="M836.584 289.699C839.19 290.272 841.65 291.573 844.032 292.75C852.205 296.788 859.508 302.634 865.858 309.135L862.598 309.363C859.729 307.955 857.719 304.176 854.927 302.424C851.765 300.44 848.058 299.518 844.766 297.698L846.206 296.347L846.005 295L842.917 293.284C841.018 292.193 838.799 291.443 836.799 290.46L836.584 289.699Z"/>
	<defs>
		<linearGradient id="gradient_0" gradientUnits="userSpaceOnUse" x1="683.87091" y1="304.04736" x2="682.65131" y2="277.92825">
			<stop offset="0" stop-color="#6C6C60"/>
			<stop offset="1" stop-color="#9399A9"/>
		</linearGradient>
	</defs>
	<path fill="url(#gradient_0)" transform="matrix(0.426758 0 0 0.426758 -3.05176e-05 3.05176e-05)" d="M519.218 285.023L570.056 284.725L689.593 284.8L768.393 284.608L815.186 285.235C822.021 285.665 830.467 286.451 836.584 289.699L836.799 290.46C838.799 291.443 841.018 292.193 842.917 293.284L846.005 295L846.206 296.347L844.766 297.698C838.691 294.714 831.535 291.4 824.735 290.616C821.946 290.294 819.09 290.45 816.287 290.285L766.996 289.377L624.217 288.626L530.261 287.953C527.281 287.154 523.639 287.382 520.545 287.286C520.033 286.539 519.635 285.823 519.218 285.023Z"/>
	<defs>
		<linearGradient id="gradient_1" gradientUnits="userSpaceOnUse" x1="639.12836" y1="845.81244" x2="372.85129" y2="212.39676">
			<stop offset="0" stop-color="black"/>
			<stop offset="1" stop-color="#21242C"/>
		</linearGradient>
	</defs>
	<path fill="url(#gradient_1)" transform="matrix(0.426758 0 0 0.426758 -3.05176e-05 3.05176e-05)" d="M505.315 285.482L519.218 285.023C519.635 285.823 520.033 286.539 520.545 287.286C523.639 287.382 527.281 287.154 530.261 287.953L624.217 288.626L766.996 289.377L816.287 290.285C819.09 290.45 821.946 290.294 824.735 290.616C831.535 291.4 838.691 294.714 844.766 297.698C848.058 299.518 851.765 300.44 854.927 302.424C857.719 304.176 859.729 307.955 862.598 309.363L865.858 309.135C869.946 313.853 874.617 319.021 876.754 325.004L878.851 329.66L881.51 335.755C881.602 338.516 883.555 341.944 883.887 344.895C884.064 346.471 884.666 347.927 884.846 349.5C885.471 354.987 885.3 360.898 885.37 366.436L885.451 398.014L885.048 475.69L885.294 633.315L885.289 693.031C885.202 698.537 885.023 703.83 883.961 709.25C880.985 724.43 872.463 738.273 861.403 748.9C850.754 759.134 837.26 765.386 822.629 767.226C815.953 768.065 808.955 767.913 802.232 767.959L770.403 768.132L633.41 768.527L403.586 769.651L198.817 769.48C179 769.09 161.456 761.676 147.789 747.25C137.757 736.66 130.037 722.846 127.566 708.385C125.217 694.639 126.463 679.575 126.499 665.639L126.552 596.443L126.876 500.474L126.572 411.902L126.691 358.124C127.248 339.033 133.879 319.602 148.25 306.325L151.903 303.183L153.077 302.11C160.598 295.801 169.526 291.183 179.052 288.834C191.545 285.754 206.077 287.01 218.915 286.654L249.908 285.958C255.5 285.887 261.216 285.579 266.796 285.949L505.315 285.482Z"/>
	<path fill="#010101" transform="matrix(0.426758 0 0 0.426758 -3.05176e-05 3.05176e-05)" d="M875.046 327.776C876.448 328.763 877.126 329.476 878.851 329.66L881.51 335.755C878.954 335.763 876.259 336.392 874.25 334.755L873.625 335.375L873.25 333.755L872.755 334.25L873.16 336L872.625 336.375C872.602 334.647 871.523 333.728 871.5 332C872.126 331.062 871.803 331.37 872.719 330.702L873.375 330.248L873.101 328.835L873.408 328.837C874.436 329.162 874.714 329.446 875.875 329.375C875.366 328.859 875.538 329.132 875.251 328.363L875.046 327.776Z"/>
	<defs>
		<linearGradient id="gradient_2" gradientUnits="userSpaceOnUse" x1="805.97876" y1="550.72577" x2="808.60718" y2="547.18121">
			<stop offset="0" stop-color="#886656"/>
			<stop offset="1" stop-color="#8F7970"/>
		</linearGradient>
	</defs>
	<path fill="url(#gradient_2)" transform="matrix(0.426758 0 0 0.426758 -3.05176e-05 3.05176e-05)" d="M795.498 530.759L796.368 534.354C797.726 541.13 802.326 546.274 808 549.988C814.174 554.031 822.884 556.548 830.322 556.365C832.911 556.301 835.798 555.526 838.289 556.395L837.854 556.599C830.113 559.853 819.328 558.324 811.774 555.127C802.591 551.241 794.846 542.702 791.152 533.521L792.463 534.466C793.409 535.489 793.939 536.443 795.074 537.416L795.75 537.245L795.875 536.247C794.892 534.581 795.329 532.607 795.498 530.759Z"/>
	<defs>
		<linearGradient id="gradient_3" gradientUnits="userSpaceOnUse" x1="809.29462" y1="526.20868" x2="791.72479" y2="502.65778">
			<stop offset="0" stop-color="#8E7C7A"/>
			<stop offset="1" stop-color="#CBCBCC"/>
		</linearGradient>
	</defs>
	<path fill="url(#gradient_3)" transform="matrix(0.426758 0 0 0.426758 -3.05176e-05 3.05176e-05)" d="M791.152 533.521L790.79 532.689C787.897 525.224 788.61 515.347 791.576 507.986C795.02 499.439 801.704 492.914 810.168 489.304C809.411 490.246 808.726 491.126 807.752 491.859C807.878 492.706 807.883 493.897 808.353 494.605C800.753 501.071 796.279 509.47 795.482 519.5C795.181 523.29 795.151 526.974 795.498 530.759C795.329 532.607 794.892 534.581 795.875 536.247L795.75 537.245L795.074 537.416C793.939 536.443 793.409 535.489 792.463 534.466L791.152 533.521Z"/>
	<defs>
		<linearGradient id="gradient_4" gradientUnits="userSpaceOnUse" x1="698.55286" y1="536.18671" x2="767.65924" y2="529.7168">
			<stop offset="0" stop-color="#964C02"/>
			<stop offset="1" stop-color="#D4810C"/>
		</linearGradient>
	</defs>
	<path fill="url(#gradient_4)" transform="matrix(0.426758 0 0 0.426758 -3.05176e-05 3.05176e-05)" d="M746.433 473.189L746.436 405.858C746.349 401.741 746.061 397.631 745.527 393.547C745.241 391.366 743.893 387.157 744.745 385.25L744.25 385L744.245 384L743.75 383.5L743.745 382.5C743.378 381.941 743.08 381.424 742.802 380.812C742.388 379.901 742.027 379.154 741.466 378.312C740.926 377.503 740.996 377.911 741 377.245C742.06 376.541 742.51 376.748 743.75 376.745L747 380.25C748.042 381.588 748.475 381.96 750 382.589L750.5 382L751 381.745L751.745 381.25L752.138 381.869L752.708 381.435C754.905 386.375 756.043 392.54 756.388 397.926C757.274 411.802 756.583 426.119 756.556 440.036L756.639 514.864L757.159 592.587C757.244 606.983 757.934 621.729 756.974 636.092C756.513 642.987 754.992 649.472 752.505 655.92C746.21 672.24 732.92 685.038 717 692.017C713.14 693.709 708.196 695.791 704.003 696.005C704.555 695.46 704.338 695.573 704.945 695.291C707.423 694.139 710.392 692.755 712.5 691.02C713.197 690.446 713.279 690.184 714.15 689.714C716.594 688.398 718.752 686.568 720.966 684.904C724.355 682.357 730.226 678.857 731.519 674.72C736.027 670.126 740.561 665.386 743.745 659.75L742.245 659.75C743.4 658.149 743.89 656.904 744.384 654.999L746.699 649.001C746.452 648.012 746.142 647.049 746.341 646.028C746.703 644.175 746.561 642.32 746.893 640.59C747.836 635.674 748.641 628.191 747.569 623.308C747.264 621.92 747.15 620.692 747.173 619.264L746.941 560.668C747.017 559.673 747.108 560.225 746.586 559.158L746.433 473.189Z"/>
	<path fill="#BEBDC4" transform="matrix(0.426758 0 0 0.426758 -3.05176e-05 3.05176e-05)" d="M819.192 486.312C824.35 485.736 828.833 485.468 834.009 486.125C843.103 487.944 850.713 492.64 855.914 500.425C861.967 509.487 863.854 520.116 861.685 530.795C859.873 539.718 854.077 547.827 846.453 552.736C844.46 554.02 840.714 556.35 838.289 556.395C835.798 555.526 832.911 556.301 830.322 556.365C822.884 556.548 814.174 554.031 808 549.988C802.326 546.274 797.726 541.13 796.368 534.354L795.498 530.759C795.151 526.974 795.181 523.29 795.482 519.5C796.279 509.47 800.753 501.071 808.353 494.605C807.883 493.897 807.878 492.706 807.752 491.859C808.726 491.126 809.411 490.246 810.168 489.304C813.159 487.925 815.986 487.056 819.192 486.312Z"/>
	<path fill="#F2F2F2" transform="matrix(0.426758 0 0 0.426758 -3.05176e-05 3.05176e-05)" d="M819.192 486.312C824.35 485.736 828.833 485.468 834.009 486.125C833.78 486.425 833.014 487.65 832.75 487.772C830.047 489.023 825.838 489.013 822.853 489.946C811.375 493.533 803.128 502.337 799.54 513.75C798.323 517.619 797.439 522.219 797.534 526.287C797.603 529.257 798.359 532.89 797.623 535.789L796.368 534.354L795.498 530.759C795.151 526.974 795.181 523.29 795.482 519.5C796.279 509.47 800.753 501.071 808.353 494.605C807.883 493.897 807.878 492.706 807.752 491.859C808.726 491.126 809.411 490.246 810.168 489.304C813.159 487.925 815.986 487.056 819.192 486.312Z"/>
	<path fill="#BEBDC4" transform="matrix(0.426758 0 0 0.426758 -3.05176e-05 3.05176e-05)" d="M810.168 489.304C813.159 487.925 815.986 487.056 819.192 486.312C818.059 488.6 817.169 489.182 815 490.397L808.353 494.605C807.883 493.897 807.878 492.706 807.752 491.859C808.726 491.126 809.411 490.246 810.168 489.304Z"/>
	<defs>
		<linearGradient id="gradient_5" gradientUnits="userSpaceOnUse" x1="632.52832" y1="627.85455" x2="186.91162" y2="265.56381">
			<stop offset="0" stop-color="#000002"/>
			<stop offset="1" stop-color="#7C7E83"/>
		</linearGradient>
	</defs>
	<path fill="url(#gradient_5)" transform="matrix(0.426758 0 0 0.426758 -3.05176e-05 3.05176e-05)" d="M505.315 285.482L519.218 285.023C519.635 285.823 520.033 286.539 520.545 287.286C523.639 287.382 527.281 287.154 530.261 287.953L624.217 288.626L766.996 289.377L816.287 290.285C819.09 290.45 821.946 290.294 824.735 290.616C831.535 291.4 838.691 294.714 844.766 297.698C848.058 299.518 851.765 300.44 854.927 302.424C857.719 304.176 859.729 307.955 862.598 309.363L865.858 309.135C869.946 313.853 874.617 319.021 876.754 325.004L878.851 329.66C877.126 329.476 876.448 328.763 875.046 327.776L875.251 328.363C875.538 329.132 875.366 328.859 875.875 329.375C874.714 329.446 874.436 329.162 873.408 328.837L873.101 328.835L867.958 323.603L863.5 318L864 317.25L861.648 315.023C860.824 314.349 860.156 313.718 859.5 312.875L859.125 312.375C858.036 311.908 858.406 312.188 857.57 311.352L857 310.75C856.164 310.64 855.985 310.502 855.305 309.945L854.625 309.375C853.264 308.547 854.176 309.451 853.303 308.593C852.565 307.868 851.925 307.153 851.118 306.492L850.5 306L848 304C847.226 303.384 846.664 302.882 845.781 302.406C843.946 301.418 842.198 299.828 840.027 299.774L832.326 297.017L831 297.165L829.625 297.875L828.625 297.125L827.75 297.5C826.599 297.007 827.139 297.301 826.125 296.625L825.625 296.875L825.125 296.625L824.25 297L823.625 296.625L822.5 297.25C822.222 298.642 822.124 298.601 821 299.5C819.686 299.538 818.998 299.671 817.75 300C816.415 300.352 815.192 300.056 813.75 300.5C813.098 300.701 812.248 300.436 811.625 300.625C810.813 300.872 810.951 301.441 809.867 301.539C808.574 301.657 807.639 302.362 806.297 302.469C805.101 302.564 804.537 302.904 803.5 303.5L799.305 305.977C798 306.846 796.984 307.314 795.5 307.75L794.742 308.008L791.875 308.875C790.661 309.234 789.546 309.054 788.25 309.5L787 309.75L785.141 310.109C784.072 310.323 783.212 310.664 782.242 311.148C781.442 311.548 781 311.602 780.125 311.625L779.656 312C778.525 312.88 777.778 313.255 776.5 313.75L772.5 315.5L771.25 316C769.632 316.666 768.084 317.403 766.625 318.375L766.125 318.125C765.165 319.853 763.49 320.235 761.789 321.18C760.464 321.916 758.997 323.107 757.82 324.07C757.064 324.689 756.259 324.958 755.5 325.5C754.587 326.152 753.853 327.219 752.938 327.937C750.998 329.459 749.597 331.83 747.375 332.875L745.5 334L744.25 334.5L742.695 335.195C742.077 335.476 741.638 335.58 741 335.75C739.865 336.053 739.448 336.526 738.5 337C737.733 337.384 737.286 337.503 736.5 338C735.663 338.529 734.818 338.925 734 339.5L731.255 341.25L731.25 342L730.5 342.25L730.497 342.875L730.007 343.086C728.989 343.539 728.255 343.917 727.5 344.75L727.497 345.375L726.5 346.245L725.625 345.625L725.5 346.255L725.975 346.657C726.553 347.19 726.77 347.574 727.091 348.27C718.188 343.306 708.901 339.04 698.608 338.107C691.43 337.457 683.952 337.898 676.743 337.971L640.682 338.27L523.861 338.429L372.902 338.306L334.9 338.506C327.045 338.503 318.801 337.968 311 338.859C301.65 339.926 289.194 343.129 282.121 349.674C269.878 356.496 260.475 371.397 256.717 384.578C253.713 395.115 253.852 405.888 253.882 416.736L253.918 447.959L253.162 505.053L253.508 561.08L252.952 612.797C252.938 620.861 252.582 629.175 253.412 637.199C254.41 646.839 257.598 656.77 262.353 665.209C264.474 668.972 267.187 673.311 270.48 676.139C275.483 681.894 281.815 686.232 288.614 689.611C290.69 690.642 293.247 691.978 295.533 692.367C303.339 695.885 312.526 697.014 320.995 697.144L372.043 697.491C379.207 697.514 387.232 696.825 394.261 697.93C388.628 698.905 381.775 698.237 376 698.245L375.25 698.745L367.562 698.684C366.663 698.596 365.403 698.581 364.5 698.622C362.759 698.702 361.064 698.873 359.306 698.681C358.441 698.587 357.829 698.479 356.953 698.622C355.333 698.887 353.057 698.474 351.328 698.477L339.5 698.622L338.998 698.997C338.295 699.347 337.688 699.568 336.998 699.997C336.876 700.773 336.713 701.087 336.26 701.766L335.745 702.5L335.25 703.245L332.75 706.745C332.294 706.975 331.91 707.069 331.623 707.5C330.974 708.47 330.534 709.224 329.685 710.078C329.127 710.639 329.185 710.756 328.998 711.497C328.024 711.82 328.407 711.572 327.671 712.309C326.674 713.305 325.634 714.166 324.498 714.997L323.75 715L322.75 716.245L322.25 715.5L321.998 716.497L321.25 716.5C320.663 717.374 320.39 717.503 319.498 717.997L318.75 718C318.302 718.716 318.077 718.997 317.296 719.387L316.5 719.745L314.998 720.497L314.25 720.5C313.802 721.216 313.577 721.497 312.796 721.887L308.498 723.997L302.5 727.245L296 730.745C291.64 733.322 286.689 736.083 281.998 737.997L280 738.745C278.117 739.626 276.07 740.201 274.233 741.121L273.498 741.497C273.096 741.666 272.67 741.779 272.284 741.979C271.526 742.37 270.895 742.747 270.045 742.918C269.13 743.103 268.363 743.386 267.5 743.745L266.25 744.245L265.5 744.25L265 744.75C263.69 744.741 263.35 745.545 262.25 745.745C260.875 745.995 262.032 745.479 261.047 745.967C259.908 746.53 258.686 746.802 257.5 747.245C256.782 747.513 256.493 747.642 255.688 747.707L255 747.745C254.054 748.376 254.063 748.245 253 748.245C252.054 748.876 252.063 748.745 251 748.745C249.899 749.479 249.041 749.245 247.75 749.245C246.966 750.029 246.567 749.745 245.5 749.745L244.75 750.245C242.063 750.16 239.747 750.807 237 750.745C235.772 751.564 233.747 751.245 232.25 751.245C231.398 752.097 229.938 751.745 228.75 751.745L228.25 752.211L227.5 751.75C225.505 752.89 221.394 752.154 219.008 752.451L218.502 752.522L217.875 752.503C217.19 752.955 216.309 752.753 215.5 752.755C214.686 753.561 213.616 753.253 212.5 753.255L211.875 753.875L211.25 753.255L210.5 754L209.75 753.255L209 754L208.25 753.255C207.471 754.034 207.06 753.752 206 753.755L205.375 754.375L204.875 754.003C204.161 754.535 204.095 754.345 203.25 754.255L202.875 754.875L202.25 754.255L201.5 755L200.75 754.255L200.255 754.75C199.369 754.73 198.265 754.721 197.5 755.255L196.875 755.875L196.25 755.255L195.5 756L194.75 755.255L194 756L193.25 755.255L192.5 756L191.75 755.255L191 756L190.375 755.503L189.5 755.255L188.75 754.755L188 755.5L187.25 754.755L186.375 755.875C185.195 754.705 185.102 755.589 183.75 755.255C183.332 755.152 182.678 753.877 182.25 753.755C181.402 753.513 179.442 753.755 178.5 753.755C177.902 753.343 177.433 753.02 176.75 752.755L175.5 752.255C174.38 751.635 173.928 751.722 172.625 752.003L171.75 752.255L171.25 751.755C170.459 751.637 169.961 751.5 169.233 751.137C168.335 750.688 168.76 750.845 168 750.558C167.093 750.216 166.261 749.961 165.475 749.371C164.838 748.893 165.173 749.068 164.428 748.737L163.875 748.503C162.588 747.842 161.079 747.23 159.893 746.419L159.5 746.13C158.329 745.349 157.243 744.739 156.21 743.757C147.693 735.659 141.174 726.338 136.797 715.457C136.002 713.48 134.703 711.457 134.662 709.303C134.632 707.747 134.121 706.644 133.806 705.165C133.097 701.84 132.677 697.804 132.625 694.421L133.015 638.276L132.434 581.811L132.613 514.812L132.047 458.089L132.557 411.019L132.458 369.789L132.574 355.041C132.627 352.362 132.434 349.31 133.523 346.812L133.901 346L133.187 345.75C133.41 344.01 133.561 342.322 134.182 340.672L135.25 341.073L135.955 338.75L135.5 337.968C134.763 336.603 135.57 335.806 135.94 334.425C136.115 333.77 135.902 334.135 136.5 333.557L137.191 334.25L137.812 333.903C136.965 332.447 137.689 331.341 137.946 329.75L136.963 330.311L136.669 330L137.642 328.25L138.5 328.119C139.473 327.257 139.799 327.235 140.128 325.928L139.126 325.793L139.164 324.75L141.25 322.854C140.904 321.849 140.979 322.308 140.926 321.497C142.222 320.768 143.38 319.831 144.565 318.938L144.465 317.992L143.75 317.318L152.119 307.863L151.874 307.218C151.007 307.548 151.392 307.504 150.745 307.5L149.75 306.255C150.214 305.739 150.562 305.444 151.169 305.078L151.745 304.75L151.903 303.183L153.077 302.11C160.598 295.801 169.526 291.183 179.052 288.834C191.545 285.754 206.077 287.01 218.915 286.654L249.908 285.958C255.5 285.887 261.216 285.579 266.796 285.949L505.315 285.482Z"/>
	<path fill="#64686C" transform="matrix(0.426758 0 0 0.426758 -3.05176e-05 3.05176e-05)" d="M505.315 285.482L519.218 285.023C519.635 285.823 520.033 286.539 520.545 287.286C523.639 287.382 527.281 287.154 530.261 287.953L527.075 288.081C523.016 288.167 507.661 288.547 504.972 285.991L505.315 285.482Z"/>
	<path fill="#010101" transform="matrix(0.426758 0 0 0.426758 -3.05176e-05 3.05176e-05)" d="M724.835 294.039L788.497 294.193L812.879 294.627C818.995 294.784 826.734 294.295 832.326 297.017L831 297.165L829 296.622C827.194 296.126 825.238 296.603 823.503 295.998C819.704 294.672 815.045 296.036 811.039 295.507L807.5 295.245L807.25 295.5L807.375 296.375L805.75 296.5C804.705 296.776 803.394 297.302 802.25 297C799.686 296.322 803.073 296.852 800.445 296.477L799.625 296.375L800.125 295.625L805.375 295.375C804.171 294.652 802.399 295.214 801 295.123C799.655 295.034 798.322 295.213 797 295.123C789.823 294.631 782.385 296.049 775.25 295.245C770.532 294.713 764.775 294.922 760 295.245C758.985 294.24 754.152 294.731 752.5 294.623L745 294.623L744.25 294.745L737.656 294.629L737 294.623L731.75 294.5C729.242 294.688 727.321 294.581 724.835 294.039Z"/>
	<path fill="#888486" transform="matrix(0.426758 0 0 0.426758 -3.05176e-05 3.05176e-05)" d="M168.834 298.223C169.476 299.888 169.325 299.991 168.625 301.625L167.906 302L165.5 303.5L161.742 305.992L159.625 307.625C158.327 308.69 156.863 309.483 155.625 310.625C153.849 312.264 152.078 314.931 149.875 315.875L149.203 315.5C148.351 315.074 148.036 315.045 147.125 315.125C145.973 316.324 145.8 316.903 145.498 318.498L144.565 318.938L144.465 317.992L143.75 317.318L152.119 307.863C157.313 303.973 162.648 300.288 168.834 298.223Z"/>
	<path fill="#586065" transform="matrix(0.426758 0 0 0.426758 -3.05176e-05 3.05176e-05)" d="M222.144 291.581C223.727 291.469 225.172 291.416 226.75 291.5C228.819 291.611 234.451 292.033 236 291L249.867 291C251.382 291 253.247 290.665 254.5 291.5C260.652 291.5 301.42 292.386 303.5 291L409.815 291.71L420.483 291.623C423.608 291.495 436.546 289.854 438.818 291.132C439.698 291.627 439.349 291.457 440.411 291.759L426.5 291.944C424.674 291.952 422.539 291.662 420.75 291.904C419.973 292.009 419.59 292.316 418.73 292.327L395.895 292.25C393.996 292.25 389.98 291.769 388.5 292.755C383.313 292.794 347.876 293.976 345.806 292.747C342.446 290.753 316.051 291.871 310.097 291.9L229.396 292.175C222.216 292.213 214.551 293.439 207.411 292.485C211.82 291.38 217.565 291.78 222.144 291.581Z"/>
	<path fill="#3C4654" transform="matrix(0.426758 0 0 0.426758 -3.05176e-05 3.05176e-05)" d="M724.835 294.039L589.25 293.397L589.003 293.125C595.115 292.803 640.627 292.251 642.5 293.5C651.923 293.5 727.103 294.264 729 293L742.867 293C744.382 293 746.247 292.665 747.5 293.5L782.015 293.512C785.261 293.512 792.475 294.397 795.25 293L792.003 292.875L792.003 292.502C793.835 291.129 797.43 291.755 799.75 291.755L800.25 292.255C803.458 292.255 817.683 291.544 819.5 292.755L823.75 292.755L824.25 293.255C825.478 293.513 826.06 293.35 827.25 293.255C828.954 293.118 827.683 293.116 828.75 293.755C829.249 294.054 830.171 294.144 830.75 294.255L831.25 294.755C832.27 294.755 832.497 294.502 833.25 295.255L834.497 295.502L834.497 295.875L832.747 296.125C833.238 296.853 834.835 297.256 835.663 297.625C836.488 297.993 835.99 297.782 836.828 298.033C838.019 298.39 839.069 298.984 840.027 299.774L832.326 297.017C826.734 294.295 818.995 294.784 812.879 294.627L788.497 294.193L724.835 294.039Z"/>
	<path fill="#3C4654" transform="matrix(0.426758 0 0 0.426758 -3.05176e-05 3.05176e-05)" d="M151.903 303.183L153.077 302.11C160.598 295.801 169.526 291.183 179.052 288.834C191.545 285.754 206.077 287.01 218.915 286.654L249.908 285.958C255.5 285.887 261.216 285.579 266.796 285.949L266.425 286.695C263.121 286.77 249.301 285.462 247.5 287.245L235.672 286.975C232.791 287.034 229.904 287.597 227 287.123L226.577 287.295C223.536 288.432 219.422 287.67 216.25 287.5L214.5 287.623C211.727 287.807 208.759 287.887 206 287.623L204.5 287.623L200 287.75L199.5 288.245L192.25 288L191 288.123C189.669 288.212 189.005 287.748 188 288.745L187.336 288.684L185.125 288.625C184.317 289.985 184.469 290.881 184.625 292.375L188 292.5L187.75 292.245L187.255 291.5L186.5 290.75L187.25 290C188.149 290.453 188.358 290.513 188.875 291.375L190.25 289.255L191.745 289.75C191.481 290.549 191.256 290.856 190.745 291.5L191 292C193.494 292.008 196.024 292.126 198.5 291.877C201.042 291.623 205.94 292.873 208 291.5L222.144 291.581C217.565 291.78 211.82 291.38 207.411 292.485C198.201 292.569 188.688 292.43 179.642 294.375C177.115 294.919 174.581 295.385 172.25 296.533L170.75 296.255L168.834 298.223C162.648 300.288 157.313 303.973 152.119 307.863L151.874 307.218C151.007 307.548 151.392 307.504 150.745 307.5L149.75 306.255C150.214 305.739 150.562 305.444 151.169 305.078L151.745 304.75L151.903 303.183Z"/>
	<path fill="#3C4654" transform="matrix(0.426758 0 0 0.426758 -3.05176e-05 3.05176e-05)" d="M624.217 288.626L766.996 289.377L816.287 290.285C819.09 290.45 821.946 290.294 824.735 290.616C831.535 291.4 838.691 294.714 844.766 297.698C848.058 299.518 851.765 300.44 854.927 302.424C857.719 304.176 859.729 307.955 862.598 309.363L865.858 309.135C869.946 313.853 874.617 319.021 876.754 325.004L878.851 329.66C877.126 329.476 876.448 328.763 875.046 327.776L873.003 325.998L872.25 325.745L867.003 320.498C866.217 319.049 867.456 320.42 866.113 319.077C865.375 318.339 865.487 318.436 865.255 317.5L865.75 317L871.5 322.75L871.755 322.25L870.003 320.375C869.102 318.686 864.727 313.886 863.003 312.998C861.94 312.45 862.539 313.07 861.909 312.426C859.44 309.902 856.436 307.808 853.75 305.5C851.468 303.539 849.129 301.632 846.625 299.998C845.951 299.557 845.567 299.133 844.805 298.787L843.125 297.998L842.5 297.745L841.75 297.245L840.5 296.745C839.573 296.123 839.118 296.027 838 295.745C837.327 295.079 836.898 295.015 836 294.75L835.125 294.498L831.5 293.245L830.625 292.998L829.5 292.623L828.5 292.745C827.272 291.929 826.327 292.448 825 291.623C824.166 291.632 823.326 291.675 822.503 291.498C820.954 291.163 819.573 291.213 818 291.123C815.48 290.978 813.017 291.069 810.5 291.245C808.019 289.27 800.657 290.888 797.375 290.566L752 290.123L751.5 289.75L749.75 289.745C737.93 288.73 725.471 289.501 713.566 289.511L654.491 289.246L635.149 289.179C631.586 289.156 627.683 289.447 624.217 288.626Z"/>
	<path fill="#586065" transform="matrix(0.426758 0 0 0.426758 -3.05176e-05 3.05176e-05)" d="M865.858 309.135C869.946 313.853 874.617 319.021 876.754 325.004L875.923 325.177L874.65 324.155C873.065 322.992 872.26 321.244 870.996 319.75C868.92 317.295 866.25 315.221 864.667 312.394C864.22 311.595 863.79 310.885 863.225 310.159L862.598 309.363L865.858 309.135Z"/>
	<path fill="#010101" transform="matrix(0.426758 0 0 0.426758 -3.05176e-05 3.05176e-05)" d="M200.964 487.762C204.312 487.307 207.636 488.178 210.927 488.733C213.629 489.188 217.209 490.361 219.5 491.884C220.615 492.625 219.825 492.232 220.993 492.509C225.162 493.496 231.362 502.824 233.407 506.529C238.37 515.517 238.892 527.235 236.013 536.992C233.775 544.576 228.716 551.586 221.637 555.328C218.05 557.223 214.275 558.113 210.317 558.809C206.475 559.485 201.365 559.401 197.504 558.92C195.588 558.392 195.009 558.328 193.564 556.887C200.853 554.727 205.941 550.872 211.072 545.403L213.659 544.499C216.307 542.205 218.362 538.326 219.235 534.965C219.374 532.6 220.141 530.441 220.129 528.021L219.25 527.255C219.302 525.812 218.929 524.795 218.444 523.471C217.913 517.035 217.056 511.638 214.739 505.558C214.899 504.502 215.021 503.843 214.617 502.824C213.746 500.629 213.698 499.647 214.147 497.308C212.888 496.158 212.514 495.154 211.957 493.561L211.915 493.587C208.377 491.388 204.815 489.364 200.964 487.762Z"/>
	<path fill="#4E2406" transform="matrix(0.426758 0 0 0.426758 -3.05176e-05 3.05176e-05)" d="M222.642 525.333C222.899 528.94 222.15 532.063 221.943 535.599C220.372 539.985 217.651 544.125 214.537 547.557L214.422 547.572L213.548 547.179L214.75 545.755L213.659 544.499C216.307 542.205 218.362 538.326 219.235 534.965C221.895 531.961 222.04 529.182 222.642 525.333Z"/>
	<path fill="#582C14" transform="matrix(0.426758 0 0 0.426758 -3.05176e-05 3.05176e-05)" d="M213.659 544.499L214.75 545.755L213.548 547.179L214.422 547.572C211.547 551.112 208.595 553.543 204.454 555.469C202.22 556.508 199.437 557.422 197.504 558.92C195.588 558.392 195.009 558.328 193.564 556.887C200.853 554.727 205.941 550.872 211.072 545.403L213.659 544.499Z"/>
	<path fill="#582C14" transform="matrix(0.426758 0 0 0.426758 -3.05176e-05 3.05176e-05)" d="M211.957 493.561C218.303 497.775 223.119 505.287 224.634 512.73C226.027 519.571 225.805 529.584 221.943 535.599C222.15 532.063 222.899 528.94 222.642 525.333C222.508 521.794 222.376 518.075 221.542 514.626C220.304 509.507 217.785 504.481 215.985 499.502C215.59 498.41 214.999 498.077 214.147 497.308C212.888 496.158 212.514 495.154 211.957 493.561Z"/>
	<path fill="#743C23" transform="matrix(0.426758 0 0 0.426758 -3.05176e-05 3.05176e-05)" d="M214.147 497.308C214.999 498.077 215.59 498.41 215.985 499.502C217.785 504.481 220.304 509.507 221.542 514.626C222.376 518.075 222.508 521.794 222.642 525.333C222.04 529.182 221.895 531.961 219.235 534.965C219.374 532.6 220.141 530.441 220.129 528.021L219.25 527.255C219.302 525.812 218.929 524.795 218.444 523.471C217.913 517.035 217.056 511.638 214.739 505.558C214.899 504.502 215.021 503.843 214.617 502.824C213.746 500.629 213.698 499.647 214.147 497.308Z"/>
	<path fill="#F2F2F2" transform="matrix(0.426758 0 0 0.426758 -3.05176e-05 3.05176e-05)" d="M193.564 556.887C183.02 558.064 174.791 559.058 165.25 553.395C157.279 548.664 150.267 540.888 147.921 531.745C145.526 522.413 147.017 512.134 151.923 503.876C156.906 495.487 165.653 488.841 175.167 486.596L176 486.405C182.859 484.793 188.675 485.584 195.399 487.351C197.187 487.03 198.013 487.119 199.75 487.548L200.964 487.762C204.815 489.364 208.377 491.388 211.915 493.587L211.957 493.561C212.514 495.154 212.888 496.158 214.147 497.308C213.698 499.647 213.746 500.629 214.617 502.824C215.021 503.843 214.899 504.502 214.739 505.558C217.056 511.638 217.913 517.035 218.444 523.471C218.929 524.795 219.302 525.812 219.25 527.255L220.129 528.021C220.141 530.441 219.374 532.6 219.235 534.965C218.362 538.326 216.307 542.205 213.659 544.499L211.072 545.403C205.941 550.872 200.853 554.727 193.564 556.887Z"/>
	<path fill="#7E4326" transform="matrix(0.426758 0 0 0.426758 -3.05176e-05 3.05176e-05)" d="M218.444 523.471C218.929 524.795 219.302 525.812 219.25 527.255L220.129 528.021C220.141 530.441 219.374 532.6 219.235 534.965C218.362 538.326 216.307 542.205 213.659 544.499L211.072 545.403C216.026 538.001 217.673 532.352 218.444 523.471Z"/>
	<path fill="#888486" transform="matrix(0.426758 0 0 0.426758 -3.05176e-05 3.05176e-05)" d="M195.399 487.351C197.187 487.03 198.013 487.119 199.75 487.548L200.964 487.762C204.815 489.364 208.377 491.388 211.915 493.587L211.957 493.561C212.514 495.154 212.888 496.158 214.147 497.308C213.698 499.647 213.746 500.629 214.617 502.824C215.021 503.843 214.899 504.502 214.739 505.558C209.948 496.996 203.733 492.239 195.399 487.351Z"/>
	<defs>
		<linearGradient id="gradient_6" gradientUnits="userSpaceOnUse" x1="662.74347" y1="640.25153" x2="292.88904" y2="333.41043">
			<stop offset="0" stop-color="#DA9004"/>
			<stop offset="1" stop-color="#F7D77E"/>
		</linearGradient>
	</defs>
	<path fill="url(#gradient_6)" transform="matrix(0.426758 0 0 0.426758 -3.05176e-05 3.05176e-05)" d="M282.121 349.674C289.194 343.129 301.65 339.926 311 338.859C318.801 337.968 327.045 338.503 334.9 338.506L372.902 338.306L523.861 338.429L640.682 338.27L676.743 337.971C683.952 337.898 691.43 337.457 698.608 338.107C708.901 339.04 718.188 343.306 727.091 348.27C738.139 356.876 749.144 367.254 752.708 381.435L752.138 381.869L751.745 381.25L751 381.745L750.5 382L750 382.589C748.475 381.96 748.042 381.588 747 380.25L743.75 376.745C742.51 376.748 742.06 376.541 741 377.245C740.996 377.911 740.926 377.503 741.466 378.312C742.027 379.154 742.388 379.901 742.802 380.812C743.08 381.424 743.378 381.941 743.745 382.5L743.75 383.5L744.245 384L744.25 385L744.745 385.25C743.893 387.157 745.241 391.366 745.527 393.547C746.061 397.631 746.349 401.741 746.436 405.858L746.433 473.189L746.586 559.158C747.108 560.225 747.017 559.673 746.941 560.668L747.173 619.264C747.15 620.692 747.264 621.92 747.569 623.308C748.641 628.191 747.836 635.674 746.893 640.59C746.561 642.32 746.703 644.175 746.341 646.028C746.142 647.049 746.452 648.012 746.699 649.001L744.384 654.999C743.89 656.904 743.4 658.149 742.245 659.75L743.745 659.75C740.561 665.386 736.027 670.126 731.519 674.72C730.226 678.857 724.355 682.357 720.966 684.904C718.752 686.568 716.594 688.398 714.15 689.714C713.279 690.184 713.197 690.446 712.5 691.02C710.392 692.755 707.423 694.139 704.945 695.291C704.338 695.573 704.555 695.46 704.003 696.005L703.635 696.033C700.614 697.008 697.409 697.338 694.25 697.461L664.446 697.619L612.901 697.823L586.453 698.054C583.414 698.082 579.03 698.672 576.132 698.065C572.233 698.655 567.841 698.383 563.875 698.407L541.928 698.513L461.836 698.228L394.261 697.93C387.232 696.825 379.207 697.514 372.043 697.491L320.995 697.144C312.526 697.014 303.339 695.885 295.533 692.367C293.247 691.978 290.69 690.642 288.614 689.611C281.815 686.232 275.483 681.894 270.48 676.139C267.187 673.311 264.474 668.972 262.353 665.209C257.598 656.77 254.41 646.839 253.412 637.199C252.582 629.175 252.938 620.861 252.952 612.797L253.508 561.08L253.162 505.053L253.918 447.959L253.882 416.736C253.852 405.888 253.713 395.115 256.717 384.578C260.475 371.397 269.878 356.496 282.121 349.674Z"/>
	<path fill="#F4CA5F" transform="matrix(0.426758 0 0 0.426758 -3.05176e-05 3.05176e-05)" d="M276.102 363.375C277.332 361.866 278.004 361.128 279.625 360.125C280.748 359.43 281.366 358.358 282.625 357.625C283.386 357.182 284.138 356.395 284.75 355.755L285.5 355.75L287 355C287.374 354.841 287.613 354.837 288 354.75L288.625 354.594C289.301 354.459 289.613 354.538 290.245 354.75L289.75 355.5L290.503 355.125C291.344 354.712 292.109 354.514 293 354.25L298.266 352.484L301.002 351.625C301.967 351.292 303.179 351.327 304.25 351C305.18 350.716 306.209 350.803 307.25 350.5C309.121 349.955 311.261 351.159 313 350L332.256 350C334.127 350 338.023 349.516 339.5 350.5C343.432 350.5 368.638 349.759 370.5 351L383.25 351L383.25 351.745C379.379 351.744 354.888 352.483 353 351.245C345.742 351.238 338.227 351.644 331 351.186C327.009 350.933 323.217 350.627 319.181 350.719C318.104 350.744 317.512 351.173 316.467 351.192C313.635 351.244 310.996 351.089 308.25 351.649C306.785 351.948 305.296 351.774 303.75 352.116C293.803 354.319 287.707 357.303 280.086 364.086C278.121 365.836 275.613 367.664 274.042 369.772L270.14 376.385C268.477 378.767 267.682 381.689 265.741 383.926C266.545 379.875 268.28 374.989 270.474 371.5C271.943 369.164 275.477 365.842 276.102 363.375Z"/>
	<path fill="#F4CA5F" transform="matrix(0.426758 0 0 0.426758 -3.05176e-05 3.05176e-05)" d="M711.255 347.25C712.795 346.918 713.555 347.328 715 347.75C716.462 348.177 717.473 348.636 718.758 349.492L721 351L725 353.5C727.213 355.072 729.768 355.918 732 357.5L732.875 358.125L733.75 358.5C734.353 360.309 736.657 361.744 738.125 362.875C738.534 363.83 738.318 363.6 738.943 364.225C739.699 364.98 740.409 365.56 740.992 366.477C741.465 367.219 741.927 367.827 742.5 368.5C743.357 369.507 743.91 370.332 744.5 371.5L744 372.245L743.255 371.5L742.75 371.245C741.455 368.982 738.639 365.305 736.596 363.669C735.234 362.579 734.993 362.251 733.25 362.245L734 363C733.833 363.25 733.465 363.452 733.5 363.75C733.561 364.268 734.237 364.487 734.605 364.855C735.777 366.027 740.75 370.338 740.75 371.624C731.196 362.495 719.08 353.855 706 350.904C698.217 349.148 690.014 349.518 682.083 349.456L655.072 349.15L554.928 348.458L505.75 347.771L505.75 347.5L544 347.5C545.948 348.799 625.106 348 635 348C637.079 349.386 646.065 348.5 648.876 348.5L691.5 348.5C693.529 349.853 696.924 348.399 699.25 349C701.032 349.46 699.286 349.359 700.85 349.43C701.892 349.478 702.927 349.41 703.956 349.616L704.5 349.75L705.75 350C706.704 350.328 707.447 350.36 708.375 350.625L711.242 351.492L712 351.75C712.84 351.996 713.385 352.111 714.18 352.539L716.5 353.75C717.608 354.16 718.449 354.348 719.5 355C720.637 355.705 722.093 356.79 723.5 356.75C723.932 356.738 724.352 356.591 724.783 356.555L725.5 356.5L725.5 355.745C724.698 355.081 723.93 354.48 723.003 353.998C722.272 353.617 721.641 353.381 721.008 352.84L720.625 352.498C719.468 351.814 720.527 352.793 719.255 351.75C718.623 351.232 718.473 350.806 717.656 350.479L717 350.245C716.271 349.925 715.692 349.522 714.908 349.325L714.5 349.245L714 348.75L713 348.745C712.308 348.06 712.266 348.236 711.344 348.183L711.255 347.25Z"/>
	<path fill="#4E2406" transform="matrix(0.426758 0 0 0.426758 -3.05176e-05 3.05176e-05)" d="M438.569 433.293L438.55 420.85C438.596 416.364 438.515 411.231 440.195 407.019C441.74 403.148 443.876 400.854 447.625 399.128C446.865 399.976 446.064 400.761 445.5 401.755L446.125 401.502C447.076 401.284 447.532 401.577 448.376 401.922L446.132 403.414C444.905 404.892 444.163 406.203 443.782 408.103C442.924 412.381 443.283 417.598 443.263 421.99L443.296 447.866L443.938 611.799C443.071 609.778 443.303 607.181 443.257 605L442.755 605.25L442.877 607C442.967 608.145 443.025 609.105 442.885 610.25C442.724 611.569 442.933 611.609 443.5 612.75L442.255 614.25L440.625 614.253L440.985 613.705L441.452 612.952C442.84 610.773 442.584 608.627 442.273 606.167C441.748 608.166 441.227 609.31 439.767 610.804L439.376 611.189C438.313 601.143 439.006 590.508 438.981 580.387L438.949 538.309C437.89 528.776 438.577 518.475 438.548 508.856L438.548 458.667L438.569 433.293Z"/>
	<path fill="#582C14" transform="matrix(0.426758 0 0 0.426758 -3.05176e-05 3.05176e-05)" d="M438.548 458.667L439.224 459.269C438.779 467.169 439.406 475.127 439.745 483C439.861 485.683 439.67 487.861 440.243 490.501L440.34 492.778C441.315 493.9 441.266 494.039 441.129 495.529C440.986 497.082 440.181 498.487 439.899 500.032C439.619 501.561 439.949 503.05 439.826 504.615L439.67 535.282C439.676 536.519 439.505 537.209 438.949 538.309C437.89 528.776 438.577 518.475 438.548 508.856L438.548 458.667Z"/>
	<path fill="#582C14" transform="matrix(0.426758 0 0 0.426758 -3.05176e-05 3.05176e-05)" d="M438.569 433.293L438.55 420.85C438.596 416.364 438.515 411.231 440.195 407.019C441.74 403.148 443.876 400.854 447.625 399.128C446.865 399.976 446.064 400.761 445.5 401.755L446.125 401.502C447.076 401.284 447.532 401.577 448.376 401.922L446.132 403.414C444.905 404.892 444.163 406.203 443.782 408.103C442.924 412.381 443.283 417.598 443.263 421.99L443.296 447.866L442.911 447.717C442.686 442.651 443.283 437.095 442.578 432.123C442.425 431.047 442.453 430.066 442.377 429C442.287 427.721 442.195 428.388 442.305 427.463C442.416 426.528 442.533 425.903 442.377 424.953C441.865 421.814 443.175 417.182 441.716 414.298L440.839 414.824C440.024 414.032 440.457 414.31 439.594 413.912C439.608 417.551 440.288 422.208 439.554 425.711C439.089 427.927 439.645 430.262 438.9 432.417L438.569 433.293Z"/>
	<path fill="#888486" transform="matrix(0.426758 0 0 0.426758 -3.05176e-05 3.05176e-05)" d="M443.296 447.866L443.263 421.99C443.283 417.598 442.924 412.381 443.782 408.103C444.163 406.203 444.905 404.892 446.132 403.414L447.785 406.662C448.289 407.543 448.576 408.297 448.899 409.25C449.796 413.468 449.093 418.2 448.958 422.5L448.693 442.797L449.688 549.72L449.606 589.551C449.506 596.27 449.719 603.248 448.906 609.918C448.706 611.563 448.296 612.981 447.518 614.456L446 614.869C444.819 613.884 444.512 613.176 443.938 611.799L443.296 447.866Z"/>
	<defs>
		<linearGradient id="gradient_7" gradientUnits="userSpaceOnUse" x1="345.61105" y1="541.53357" x2="237.06354" y2="526.62909">
			<stop offset="0" stop-color="#C66C05"/>
			<stop offset="1" stop-color="#F2B30B"/>
		</linearGradient>
	</defs>
	<path fill="url(#gradient_7)" transform="matrix(0.426758 0 0 0.426758 -3.05176e-05 3.05176e-05)" d="M270.48 676.139C267.187 673.311 264.474 668.972 262.353 665.209C257.598 656.77 254.41 646.839 253.412 637.199C252.582 629.175 252.938 620.861 252.952 612.797L253.508 561.08L253.162 505.053L253.918 447.959L253.882 416.736C253.852 405.888 253.713 395.115 256.717 384.578C260.475 371.397 269.878 356.496 282.121 349.674L282.708 350.268L282.167 350.572C281.346 351.069 281.645 350.865 281.001 351.505C280.259 352.244 280.793 351.813 279.93 352.246C278.825 352.801 278.061 353.833 277.25 354.745L276.5 354.75L276.124 355.188C274.107 357.451 271.566 359.351 269.998 361.875L268.748 363.125C267.057 364.961 269.221 362.633 267.998 364.375L267.373 364.992C266.108 366.257 267.245 364.949 266.498 366.375L265.745 367.25L265.497 367.875L264.5 369C263.747 369.882 263.785 369.899 263.498 370.875L262.623 372.5L262.426 373.039C262.203 373.629 261.889 374.013 261.5 374.5L261.5 375.255L262.75 375.255L263.245 376L263.745 376.718C264.533 377.9 264.825 378.579 264.75 380L266.25 379.5L266.984 377.25L268.25 374L268.875 372.752L269.195 372.095C269.842 370.799 270.712 369.516 271.758 368.515C272.462 367.841 272.411 367.479 272.875 366.752L274 365.5L274.5 364.75C274.83 364.341 275.56 363.436 276.102 363.375C275.477 365.842 271.943 369.164 270.474 371.5C268.28 374.989 266.545 379.875 265.741 383.926C262.152 396.9 263.065 412.011 263.06 425.409L263.267 477.024L262.089 523.199L262.868 585.06L262.941 616.854C262.947 622.332 262.623 627.952 263.013 633.408C263.277 637.114 263.944 641.434 265.148 644.943C265.721 646.612 267.508 649.415 267.665 650.977C270.799 655.914 273.697 661.273 277.494 665.735C283.897 673.261 293.029 677.578 302.348 680.263C301.207 680.475 300.046 680.637 298.938 680.979C301.228 681.941 305.021 683.711 307.375 683.875L306.5 684.5L306.078 684.391L305.5 684.25L304.922 684.102C304.091 683.935 303.335 684.043 302.502 684.125L302.502 684.497C306.186 686.307 311.55 686.574 315.626 687L348.169 689.048C347.654 689.516 347.66 689.538 347.001 689.983C340.479 694.385 306.52 690.479 298 688.398L297.5 688.75L296.75 688.255C295.493 688.249 295.312 688.005 294.25 687.417L294.25 688C294.093 688.834 294.095 688.685 293.497 689.097L288.259 687.755C287.014 687.484 286.283 687.358 285.226 686.613L284.375 686.003C282.594 685.086 280.779 684.081 279.25 682.755L278.748 682.253C276.238 680.258 273.81 677.9 270.975 676.397L270.48 676.139Z"/>
	<path fill="#D5840B" transform="matrix(0.426758 0 0 0.426758 -3.05176e-05 3.05176e-05)" d="M267.665 650.977C270.799 655.914 273.697 661.273 277.494 665.735C283.897 673.261 293.029 677.578 302.348 680.263C301.207 680.475 300.046 680.637 298.938 680.979L292.114 677.769C288.313 676.171 284.802 672.413 281.172 671.248L282.249 672.66L281.717 673.142C280.137 672.36 279.089 671.51 277.812 670.292L277.355 669.85L276.118 669.905L274.54 668.438C272.765 666.611 266.405 657.772 266.502 655.625C268.269 656.831 270.734 661.86 272.125 663.875C272.188 663.065 272.241 662.41 272.502 661.625L272.755 661L272.116 659.802L271.002 659.497C269.752 658.078 269.008 656.857 268.502 654.997L268.255 654C267.676 652.826 267.732 652.288 267.665 650.977Z"/>
	<path fill="#D69015" transform="matrix(0.426758 0 0 0.426758 -3.05176e-05 3.05176e-05)" d="M447.625 399.128C450.996 397.449 454.76 397.367 458.329 398.478C464.161 400.294 470.052 405.093 475.5 408.018C476.226 408.408 478.319 409.735 478.985 409.747C480.343 409.986 481.295 410.091 482.5 410.777L484.875 412.002L485.36 412.237C486.595 412.855 487.658 413.68 488.944 414.252C489.879 414.669 490.629 415.24 491.5 415.755L497.498 419.002L499.78 420.129L503.498 422.002L503.952 422.347C505.385 423.423 507.005 423.944 508.75 424.255C508.097 423.764 507.438 423.424 506.75 423C505.949 422.506 506.06 422.54 505.352 421.961C504.664 421.398 503.993 420.977 503.25 420.5L502.5 420L501.5 419.75L501.75 418.755L502.5 419.261L504.5 420.255L504.983 420.363C505.715 420.545 505.887 420.872 506.5 421.255C507.721 422.018 509.061 422.473 510.282 423.287C511.045 423.795 511.301 423.666 511.998 424.002L513 424.755L514.497 425.502L516.5 426.755L517.497 427.002L518.077 427.613C519.114 428.65 518.308 427.976 519.497 428.502L522.203 430.24C523.332 430.992 522.629 430.546 523.764 431.113C524.681 431.571 524.985 432.269 525.75 432.755L526.497 433.002L528 433.755L528.764 434.129C530.029 434.76 531.116 435.458 532.202 436.363C532.993 437.022 533.593 437.311 534.5 437.755L535.249 438.145C536.391 438.715 537.499 439.032 538.75 439.255C540.164 440.669 540.823 439.807 542.25 440.755C542.97 441.233 543.935 441.255 544.75 441.255L545.25 441.755C546.349 441.973 547.446 441.951 548.25 442.755C549.478 442.755 549.412 442.69 550.5 443.255L551.497 443.502L552.232 443.752C552.922 443.982 553.562 444.069 554.25 444.255L555.716 444.752C556.41 444.984 557.058 445.068 557.75 445.255C558.534 445.466 558.5 445.512 559.233 445.879C561.014 446.771 563.057 447.484 565 447.877L566 448.255L566.467 448.355C567.746 448.673 568.749 449.339 570.108 449.613C571.427 449.879 572.535 450.601 573.858 450.863C574.763 451.043 574.317 450.928 575.249 451.394C576.075 451.808 576.356 451.834 577.25 451.755L578 452.255L578.452 452.363C579.5 452.623 580.43 453.193 581.497 453.502L582.232 453.752C582.916 453.98 583.543 454.129 584.25 454.255C585.565 455.57 586.877 455.127 588 456.25L588.5 456.25L589 456.75L589.5 456.75L591 457.25L591.25 456.755L592 457.255L593.997 458.002L595.5 458.755L596.5 459.25L596.875 459.002L597.5 459.75L597.875 459.502L598.266 459.863C598.908 460.415 598.612 460.196 599.497 460.502C601.226 461.101 604.647 461.868 605.952 462.847C606.931 463.582 608.028 463.97 609 464.75L609.5 464.75L609.922 465.203C610.857 466.139 612.778 467.385 614.125 467.252L615.125 467.002L615.497 467.002L616 467.75L616.25 467.255L617 467.755L617.436 467.848C618.664 468.152 619.611 469.026 620.875 469.375L621.375 469.002L621.75 470L622.25 469.255L622.695 469.854C623.432 470.772 623.016 470.354 624.125 470.875L626 472C626.872 472.525 627.452 473.062 628.5 472.75L628.875 472.502L629.164 472.978C629.566 473.619 629.379 473.379 629.875 473.875L630.375 473.502L630.75 474.5L631.25 473.755L631.602 474.354C632.064 475.122 631.841 474.841 632.375 475.375L632.875 475.002L633.25 476L633.75 475.255L634.25 476.5L634.75 475.755L635.195 476.354C635.939 477.28 636.359 477.336 637.497 477.502L638.25 478.5L638.997 478.502L640.245 479.25L640.25 479.755L641.497 480.002L641.75 480.755C643.067 481.749 643.995 482.413 645.497 483.002C646.878 483.544 647.555 485.75 648.5 485.75L648.75 485.255L649.122 486C649.478 486.532 649.687 486.366 650.25 486.755L651.75 488.5L652.497 488.502L656.697 491.919C657.691 492.792 657.11 492.324 658.088 492.967C658.856 493.472 659.264 493.988 659.883 494.636C660.564 495.347 659.938 494.655 661.117 495.383C661.955 495.901 662.667 496.816 663.58 497.42C664.867 498.27 665.658 499.571 667.05 500.45C668.233 501.198 669.047 502.681 670.25 503.5L669.5 504.5C670.242 504.752 670.581 504.789 671.338 504.832C672.613 504.905 673.451 504.954 674.5 505.745L675.422 505.615C676.248 505.503 676.923 505.496 677.753 505.625L678.5 506.245L679.5 506.623L680.25 507C680.487 507.936 680.566 508.061 681.25 508.745L682 508.75L682.003 509.497C682.674 510.169 682.476 510.243 683.5 510.25L683.503 510.998C684.174 511.669 683.976 511.743 685 511.75L686.25 512.745L689 511.5C689.924 512.011 690.53 512.471 691.25 513.245L692 513.25L692.003 513.875L693 514.75L693.003 515.375L694.5 516.75L694.503 517.375C695.215 518.053 695.869 518.812 696.755 519.25L697.375 520.375L696.625 520.875L695.75 520.5C695.268 521.646 695.35 522.173 695.61 523.375L696.375 523.875L697.375 523.125L697.75 524L698.5 523.5L699.375 523.875L699.875 523.625L700.875 524.375L701.25 523.5L701.875 523.875L702.25 523L702.875 523.375L703.497 523.125L704.5 524L705.375 523.625L705.875 523.875L707.375 523.125L707.75 524L708.497 523.625L709.745 524.75L709.75 525.755L710.745 526.75C710.685 529.606 710.546 530.816 712.245 533.25L712 534.75L711.245 535C711.644 535.783 711.328 535.426 712.375 535.875L712.875 535.453C713.615 534.878 713.787 535.093 714.5 534.75L715.5 534L717.125 534.875L719.5 533L720.375 533.375L722.375 532.125L722.875 532.375L723.75 531.255L724.5 532C725.059 531.976 726.979 532.09 727.375 531.875C729.204 530.882 727.852 529.693 730.375 531.375L730.75 530.5L731.375 530.875L732.75 529.5L733.375 529.875L733.836 529.492C734.561 528.928 735.313 528.544 736.125 528.125C737.639 529.041 738.004 530.095 739.245 531.25L738.747 531.875L740 532.5L740.75 531.755L741.25 533C742.142 532.703 741.78 532.895 742.375 532.503L742.875 532.875L743.875 531.125L743.255 530.75C743.767 530.284 744.291 529.503 744.997 529.503C745.831 532.639 745.53 537.409 745.5 540.75C746.252 538.539 745.995 535.4 746.009 533.046C746.03 529.661 746.405 525.788 745.862 522.466C745.617 520.964 745.915 519.338 745.755 517.75C745.585 516.059 746.303 511.058 745.255 510C745.245 502.98 744.68 495.385 745.675 488.473C746.35 483.786 744.606 477.494 746.433 473.189L746.586 559.158C747.108 560.225 747.017 559.673 746.941 560.668L747.173 619.264C747.15 620.692 747.264 621.92 747.569 623.308C748.641 628.191 747.836 635.674 746.893 640.59C746.561 642.32 746.703 644.175 746.341 646.028C746.142 647.049 746.452 648.012 746.699 649.001L744.384 654.999C743.89 656.904 743.4 658.149 742.245 659.75L743.745 659.75C740.561 665.386 736.027 670.126 731.519 674.72C730.226 678.857 724.355 682.357 720.966 684.904C718.752 686.568 716.594 688.398 714.15 689.714C713.279 690.184 713.197 690.446 712.5 691.02C710.392 692.755 707.423 694.139 704.945 695.291C704.338 695.573 704.555 695.46 704.003 696.005L703.635 696.033C700.614 697.008 697.409 697.338 694.25 697.461L664.446 697.619L612.901 697.823L586.453 698.054C583.414 698.082 579.03 698.672 576.132 698.065C572.233 698.655 567.841 698.383 563.875 698.407L541.928 698.513L461.836 698.228L394.261 697.93C387.232 696.825 379.207 697.514 372.043 697.491L320.995 697.144C312.526 697.014 303.339 695.885 295.533 692.367C293.247 691.978 290.69 690.642 288.614 689.611C281.815 686.232 275.483 681.894 270.48 676.139L270.975 676.397C273.81 677.9 276.238 680.258 278.748 682.253L279.25 682.755C280.779 684.081 282.594 685.086 284.375 686.003L285.226 686.613C286.283 687.358 287.014 687.484 288.259 687.755L293.497 689.097C294.095 688.685 294.093 688.834 294.25 688L294.25 687.417C295.312 688.005 295.493 688.249 296.75 688.255L297.5 688.75L298 688.398C306.52 690.479 340.479 694.385 347.001 689.983C347.66 689.538 347.654 689.516 348.169 689.048L315.626 687C311.55 686.574 306.186 686.307 302.502 684.497L302.502 684.125C303.335 684.043 304.091 683.935 304.922 684.102L305.5 684.25L306.078 684.391L306.5 684.5L307.375 683.875C305.021 683.711 301.228 681.941 298.938 680.979C300.046 680.637 301.207 680.475 302.348 680.263L314.5 681.759C315.517 682.758 319.904 682.28 321.5 682.29C322.554 683.26 328.729 682.754 330.5 682.755C331.534 683.779 338.629 683.254 340.5 683.255C341.52 684.265 353.809 683.754 356 683.755C356.853 684.599 359.473 684.253 360.75 684.255C361.542 683.463 362.415 683.755 363.5 683.755C365.555 685.789 387.538 682.89 392.375 684.503L393 684.755C394.066 684.044 394.756 684.255 396 684.255C397.473 685.234 401.374 684.751 403.24 684.751L422.5 684.755C424.171 683.641 426.974 684.629 429.002 684.003C430.196 683.634 431.748 683.515 433.002 683.625L433.625 683.753L434.5 683.25L435 683.25L435.5 682.75C436.764 682.758 437.031 682.733 438.125 682.125C439.219 682.281 438.764 682.344 439.773 682.008L440.5 681.75L441 681.75C442.738 681.497 442.979 680.779 444.002 679.503C445.189 679.098 446.348 678.601 447.617 678.601L452.875 678.625L454.125 678.625L455 678.755C456.064 677.991 456.985 677.359 457.808 676.33L458.25 675.755L464.062 675.618L466.125 675.625L466.623 676C467.541 676.459 469.064 676.258 470.002 676.003L470.255 675C470.803 673.913 470.751 673.976 470.755 672.75C472.483 671.369 473.95 671.592 476.125 671.625L476.75 672.255L478.002 672.003C478.782 671.803 479.291 671.601 480.117 671.601L482.375 671.625L483.625 671.625C484.722 671.729 484.219 671.945 484.877 671.5C484.867 670.334 484.93 669.241 484.432 668.156C484.03 667.277 484.177 666.973 484.255 666C484.757 665.33 484.83 664.91 485.75 664.755L486.5 664.75C487.055 664.302 487.461 663.952 487.862 663.353C488.371 662.593 488.908 661.949 489.5 661.25L488.502 659.997C486.837 659.438 485.246 657.271 484.002 655.997C484.002 654.976 484.487 654.01 484.909 653.095L485.252 652.375L482.502 649.997C481.385 649.373 481.196 649.233 480.255 648.25L480.502 647.003C481.077 644.916 476.459 643.105 475.755 641.25C475.578 640.783 475.755 640.25 475.755 639.75C474.696 638.922 473.883 638.13 473.029 637.089C472.509 636.454 471.611 636.666 471.255 636.25C471.168 636.148 471.333 635.231 471.255 635C471.134 634.638 469.821 633.571 469.5 633.25L468.755 633.25C468.755 631.157 466.428 629.698 465.502 627.997C464.998 627.071 465.078 626.984 464.002 626.497C462.838 625.971 462.385 625.423 461.502 624.497C460.783 624.497 461.023 624.429 460.428 624.653L458.395 625.405L457.946 624.761L456.055 625.19C452.041 625.955 448.15 625.322 444.828 622.839C440.919 619.919 439.978 615.742 439.376 611.189L439.767 610.804C441.227 609.31 441.748 608.166 442.273 606.167C442.584 608.627 442.84 610.773 441.452 612.952L440.985 613.705L440.625 614.253L442.255 614.25L443.5 612.75C442.933 611.609 442.724 611.569 442.885 610.25C443.025 609.105 442.967 608.145 442.877 607L442.755 605.25L443.257 605C443.303 607.181 443.071 609.778 443.938 611.799C444.512 613.176 444.819 613.884 446 614.869L447.518 614.456C448.296 612.981 448.706 611.563 448.906 609.918C449.719 603.248 449.506 596.27 449.606 589.551L449.688 549.72L448.693 442.797L448.958 422.5C449.093 418.2 449.796 413.468 448.899 409.25C448.576 408.297 448.289 407.543 447.785 406.662L446.132 403.414L448.376 401.922C447.532 401.577 447.076 401.284 446.125 401.502L445.5 401.755C446.064 400.761 446.865 399.976 447.625 399.128Z"/>
	<path fill="#D5840B" transform="matrix(0.426758 0 0 0.426758 -3.05176e-05 3.05176e-05)" d="M746.586 559.158C747.108 560.225 747.017 559.673 746.941 560.668L747.173 619.264C747.15 620.692 747.264 621.92 747.569 623.308C748.641 628.191 747.836 635.674 746.893 640.59C746.561 642.32 746.703 644.175 746.341 646.028C746.142 647.049 746.452 648.012 746.699 649.001L744.384 654.999C739.035 662.835 734.107 671.601 725.75 676.755C721.329 679.481 717.158 682.699 712.503 685.003L711.736 685.394L709.75 686.255C707.973 686.983 706.309 687.838 704.503 688.503L702.058 689.538L701.705 689.164L700.375 690.375L700 691.25C698.975 691.25 699.477 691.361 698.503 690.875L698.5 690C697.879 690.469 697.493 690.681 696.75 691L696.75 690.255L696.255 689.75C696.591 689.414 696.844 688.895 697.375 689.003L698.25 689.255L701.003 686.503C702.095 686.31 702.535 685.607 703.517 685.363L704 685.255C705.145 684.691 705.197 684.755 706.5 684.755C707.291 683.188 710.63 682.447 712.199 681.766C714.777 680.646 717.342 679.26 719.75 677.811C722.681 676.047 725.343 673.786 727.92 671.552C736.102 664.461 743.302 653.025 745.773 642.463C748.017 632.872 746.468 622.207 746.269 612.417L746.135 583.732C746.125 575.773 745.937 567.664 746.539 559.728L746.586 559.158Z"/>
	<path fill="#B86501" transform="matrix(0.426758 0 0 0.426758 -3.05176e-05 3.05176e-05)" d="M744.384 654.999C743.89 656.904 743.4 658.149 742.245 659.75L743.745 659.75C740.561 665.386 736.027 670.126 731.519 674.72C730.226 678.857 724.355 682.357 720.966 684.904C718.752 686.568 716.594 688.398 714.15 689.714C713.279 690.184 713.197 690.446 712.5 691.02C710.392 692.755 707.423 694.139 704.945 695.291C704.338 695.573 704.555 695.46 704.003 696.005L703.635 696.033L702.534 695.855L701.25 696L684.441 696.087C681.626 696.018 679.009 696.085 676.352 695.028L670.124 695.346L669.728 694.513C668.525 694.49 667.227 694.372 666.044 694.609L665.5 694.75L664.25 695C663.251 695.344 662.809 695.445 661.75 695.5L661.75 694.755L662.75 694.755C663.503 694.002 663.73 694.255 664.75 694.255L665 693.75C663.975 693.408 663.449 693.634 662.422 693.891L662 694C660.543 693.029 658.244 693.724 656.497 693.375C655.936 693.263 656.075 693.198 655.5 693.25L654.625 693.375L655.25 692.255C657.183 692.255 657.317 691.255 659.25 691.255L660 690.755L660.745 691.75C662.571 691.782 665.366 692.176 667.043 691.505L667.5 691.255C668.218 691.966 668.29 691.751 669.25 691.755L669.75 691.255C670.601 691.295 671.157 691.33 671.969 691.005L672.5 690.755C673.333 691.58 675.53 691.253 676.75 691.255L677.5 690.755L678.375 691.003L678 691.5L677.25 692L677.75 692.255L678.5 691.755C679.469 692.715 683.025 692.254 684.5 692.255C685.862 691.347 687.419 691.99 689.003 691.503L689.75 691.255L690 692.25L691 692.255L691.5 692.75L692 692.25C691.11 691.805 691.107 691.963 690.625 691.003C691.539 691.003 691.779 691.049 692.477 691.645L692.875 692.003C693.625 692.003 693.353 692.049 694.04 691.879L694.5 691.755L695 692.5C696.369 692.507 698.656 692.117 700 691.755C700.458 690.848 701.317 690.224 702.058 689.538L704.503 688.503C706.309 687.838 707.973 686.983 709.75 686.255L711.736 685.394L712.503 685.003C717.158 682.699 721.329 679.481 725.75 676.755C734.107 671.601 739.035 662.835 744.384 654.999Z"/>
	<path fill="#A65901" transform="matrix(0.426758 0 0 0.426758 -3.05176e-05 3.05176e-05)" d="M731.519 674.72C730.226 678.857 724.355 682.357 720.966 684.904C718.752 686.568 716.594 688.398 714.15 689.714C713.279 690.184 713.197 690.446 712.5 691.02C710.392 692.755 707.423 694.139 704.945 695.291C704.338 695.573 704.555 695.46 704.003 696.005L703.635 696.033L702.534 695.855L701.25 696L684.441 696.087C681.626 696.018 679.009 696.085 676.352 695.028C680.242 694.626 684.199 694.787 688.106 694.778C689.944 694.774 692.238 695.046 694.003 694.503C695.1 694.164 694.395 694.292 695.564 694.154C701.037 693.504 706.61 690.929 711.503 688.503L713 687.755L731.519 674.72Z"/>
	<path fill="#A85E01" transform="matrix(0.426758 0 0 0.426758 -3.05176e-05 3.05176e-05)" d="M270.48 676.139L270.975 676.397C273.81 677.9 276.238 680.258 278.748 682.253L279.25 682.755C280.779 684.081 282.594 685.086 284.375 686.003L285.226 686.613C286.283 687.358 287.014 687.484 288.259 687.755L293.497 689.097C294.095 688.685 294.093 688.834 294.25 688L294.25 687.417C295.312 688.005 295.493 688.249 296.75 688.255L297.5 688.75L298 688.398C306.52 690.479 340.479 694.385 347.001 689.983C347.66 689.538 347.654 689.516 348.169 689.048L376.5 689.54L397.5 689.646C398.251 689.686 400.396 689.479 401 689.75C401.216 689.847 401.333 690.087 401.5 690.255L401.992 690.155L402.625 690.035L403.196 689.919C403.851 689.828 404.167 689.985 404.745 690.25L403.5 691L403.75 691.255C405.16 690.848 405.854 690.072 407.375 690.503L406.998 691.375L405.748 691.625L406.875 692.253L408 691.255L408.325 691.612C408.871 692.157 408.66 691.972 409.5 692.25L410 691.755L410.42 691.863L412.25 692.255L413 691.755L413.5 692.005C414.456 692.387 415.241 692.289 416.25 692.255L417 692.75L417.5 692.255C418.779 692.255 421.399 691.904 422.25 692.755C424.284 692.754 428.394 693.322 430 692.255L433.75 692.255L434.25 692.755C435.33 692.753 436.208 693.039 437 692.255C437.966 692.255 438.031 692.036 438.75 692.755C439.874 692.751 440.023 692.904 441 692.255C442.067 692.255 442.466 691.971 443.25 692.755C445.186 692.196 446.192 692.9 448.002 692.503C448.921 692.301 448.996 692.209 449.875 692.503C450.91 692.847 450.623 692.755 451.75 692.755L452.25 693.255C453.401 693.253 454.666 693.581 455.5 692.755C457.122 692.755 461.734 692.239 462.75 693.255C464.027 693.253 466.647 693.599 467.5 692.755C468.567 692.755 468.966 692.471 469.75 693.255C470.83 693.253 471.708 693.539 472.5 692.755C473.723 692.755 475.919 692.424 476.75 693.255C477.812 693.252 478.216 693.531 479 692.755C480.015 692.752 480.248 692.999 481 692.255C482.085 692.255 482.958 691.963 483.75 692.755L484.25 693.255C486.242 693.254 490.993 693.756 492.5 692.755C493.779 692.755 496.399 692.404 497.25 693.255C498.844 693.255 503.244 692.749 504.25 693.755L505.002 693.503C507.06 692.865 511.724 694.018 513 692.755C514.832 692.755 518.023 692.271 519.5 693.255L520.125 693.003C521.727 692.468 523.764 692.73 525.443 692.732L536.25 692.755L536.75 693.255L543 693.25L542.625 692.503C544.001 692.113 545.331 692.237 546.75 692.255L547.25 692.755C548.27 692.755 548.497 692.502 549.25 693.255C550.401 693.253 551.666 693.581 552.5 692.755C554.122 692.755 558.734 692.239 559.75 693.255C560.874 693.251 561.023 693.404 562 692.755C563.155 692.755 564.417 692.422 565.25 693.255C566.312 693.252 566.716 693.531 567.5 692.755C569.006 692.755 572.774 692.279 573.75 693.255C575.343 693.255 580.823 692.828 581.75 693.755C582.83 693.753 583.708 694.039 584.5 693.255C585.723 693.255 587.919 692.924 588.75 693.755C589.87 693.755 590.937 693.442 591.75 694.255C592.99 694.336 594.005 694.346 595.179 694.797L597.25 694.755L597.75 695.255C598.677 694.878 598.233 695.173 599 694.255C603.455 695.515 609.324 694.768 614 694.75L614.5 694.255C615.567 694.255 615.966 693.971 616.75 694.755C619.266 694.755 626.163 694.03 628 695.255L628.625 695.003L629.125 695.253L629.602 695.128C630.271 694.96 630.332 694.997 630.987 695.129C634.96 695.93 649.788 694.091 651.875 695.753L652.5 695.255L653.375 695.753L653.875 695.503L654.75 695.755L665.5 695.75L666 695.255C667.27 695.25 668.905 695.07 670.124 695.346L676.352 695.028C679.009 696.085 681.626 696.018 684.441 696.087L701.25 696L702.534 695.855L703.635 696.033C700.614 697.008 697.409 697.338 694.25 697.461L664.446 697.619L612.901 697.823L586.453 698.054C583.414 698.082 579.03 698.672 576.132 698.065C572.233 698.655 567.841 698.383 563.875 698.407L541.928 698.513L461.836 698.228L394.261 697.93C387.232 696.825 379.207 697.514 372.043 697.491L320.995 697.144C312.526 697.014 303.339 695.885 295.533 692.367C293.247 691.978 290.69 690.642 288.614 689.611C281.815 686.232 275.483 681.894 270.48 676.139Z"/>
	<path fill="#A65901" transform="matrix(0.426758 0 0 0.426758 -3.05176e-05 3.05176e-05)" d="M461.836 698.228C466.527 696.072 475.165 697.235 480.423 697.242C481.967 697.245 484.235 697.596 485.5 696.755C497.766 696.705 510.57 695.974 522.75 697.001L523.875 696.902C524.722 696.825 525.259 696.79 526.066 697.049C528.173 697.727 530.959 696.561 532.75 697.755L561.363 697.748C566.055 697.751 571.546 697.214 576.132 698.065C572.233 698.655 567.841 698.383 563.875 698.407L541.928 698.513L461.836 698.228Z"/>
	<path fill="#A65901" transform="matrix(0.426758 0 0 0.426758 -3.05176e-05 3.05176e-05)" d="M295.533 692.367C297.784 692.174 300.025 692.922 302.25 693.216C304.725 693.544 307.298 693.569 309.789 693.556C313.151 694.827 317.703 694.294 321.31 694.28L345.262 694.011L381.75 694.383L381.75 695C379.713 695 375.608 694.428 374 695.5L353.622 695.5C351.648 695.5 347.592 694.938 346 696C344.385 696.032 343.286 696.094 341.75 696.5C340.466 696.839 339.144 696.626 337.75 697C336.512 697.333 334.554 697.045 333.224 697.047C329.247 697.054 324.927 696.714 320.995 697.144C312.526 697.014 303.339 695.885 295.533 692.367Z"/>
	<path fill="#B86501" transform="matrix(0.426758 0 0 0.426758 -3.05176e-05 3.05176e-05)" d="M270.48 676.139L270.975 676.397C273.81 677.9 276.238 680.258 278.748 682.253L279.25 682.755C280.779 684.081 282.594 685.086 284.375 686.003L285.226 686.613C286.283 687.358 287.014 687.484 288.259 687.755L293.497 689.097C294.095 688.685 294.093 688.834 294.25 688L294.25 687.417C295.312 688.005 295.493 688.249 296.75 688.255L297.5 688.75L298 688.398C306.52 690.479 340.479 694.385 347.001 689.983C347.66 689.538 347.654 689.516 348.169 689.048L376.5 689.54L397.5 689.646C398.251 689.686 400.396 689.479 401 689.75C401.216 689.847 401.333 690.087 401.5 690.255L401.992 690.155L402.625 690.035L403.196 689.919C403.851 689.828 404.167 689.985 404.745 690.25L403.5 691L403.75 691.255C405.16 690.848 405.854 690.072 407.375 690.503L406.998 691.375L405.748 691.625L406.875 692.253L408 691.255L408.325 691.612C408.871 692.157 408.66 691.972 409.5 692.25L410 691.755L410.42 691.863L412.25 692.255L413 691.755L413.5 692.005C414.456 692.387 415.241 692.289 416.25 692.255L417 692.75L417.5 692.255C418.779 692.255 421.399 691.904 422.25 692.755C424.284 692.754 428.394 693.322 430 692.255L433.75 692.255L434.25 692.755C435.33 692.753 436.208 693.039 437 692.255C437.966 692.255 438.031 692.036 438.75 692.755C439.874 692.751 440.023 692.904 441 692.255C442.067 692.255 442.466 691.971 443.25 692.755C445.186 692.196 446.192 692.9 448.002 692.503C448.921 692.301 448.996 692.209 449.875 692.503C450.91 692.847 450.623 692.755 451.75 692.755L452.25 693.255C453.401 693.253 454.666 693.581 455.5 692.755C457.122 692.755 461.734 692.239 462.75 693.255C464.027 693.253 466.647 693.599 467.5 692.755C468.567 692.755 468.966 692.471 469.75 693.255C470.83 693.253 471.708 693.539 472.5 692.755C473.723 692.755 475.919 692.424 476.75 693.255C477.812 693.252 478.216 693.531 479 692.755C480.015 692.752 480.248 692.999 481 692.255C482.085 692.255 482.958 691.963 483.75 692.755L484.25 693.255C486.242 693.254 490.993 693.756 492.5 692.755C493.779 692.755 496.399 692.404 497.25 693.255C498.844 693.255 503.244 692.749 504.25 693.755L505.002 693.503C507.06 692.865 511.724 694.018 513 692.755C514.832 692.755 518.023 692.271 519.5 693.255L520.125 693.003C521.727 692.468 523.764 692.73 525.443 692.732L536.25 692.755L536.75 693.255L543 693.25L542.625 692.503C544.001 692.113 545.331 692.237 546.75 692.255L547.25 692.755C548.27 692.755 548.497 692.502 549.25 693.255C550.401 693.253 551.666 693.581 552.5 692.755C554.122 692.755 558.734 692.239 559.75 693.255C560.874 693.251 561.023 693.404 562 692.755C563.155 692.755 564.417 692.422 565.25 693.255C566.312 693.252 566.716 693.531 567.5 692.755C569.006 692.755 572.774 692.279 573.75 693.255C575.343 693.255 580.823 692.828 581.75 693.755C582.83 693.753 583.708 694.039 584.5 693.255C585.723 693.255 587.919 692.924 588.75 693.755C589.87 693.755 590.937 693.442 591.75 694.255C592.99 694.336 594.005 694.346 595.179 694.797L309.789 693.556C307.298 693.569 304.725 693.544 302.25 693.216C300.025 692.922 297.784 692.174 295.533 692.367C293.247 691.978 290.69 690.642 288.614 689.611C281.815 686.232 275.483 681.894 270.48 676.139Z"/>
	<defs>
		<linearGradient id="gradient_8" gradientUnits="userSpaceOnUse" x1="554.29657" y1="569.11859" x2="561.60901" y2="581.63104">
			<stop offset="0" stop-color="#834107"/>
			<stop offset="1" stop-color="#B06515"/>
		</linearGradient>
	</defs>
	<path fill="url(#gradient_8)" transform="matrix(0.426758 0 0 0.426758 -3.05176e-05 3.05176e-05)" d="M634.456 520.693C633.559 522.903 632.535 524.964 631.779 527.232C631.491 528.094 631.185 528.281 630.745 529C630.215 529.866 629.839 530.658 629.245 531.5L628.776 532.219C628.105 533.225 627.29 534.058 626.668 535.092C626.128 535.992 625.411 536.553 624.68 537.284C623.623 538.34 624.858 537.056 623.997 538.497C622.885 540.361 618.845 544.017 616.997 544.997C615.397 545.847 614.236 547.975 612.497 548.997C611.365 549.664 610.772 550.796 609.497 551.497C608.511 552.04 608.173 552.939 606.997 553.497L600.138 558.763C599.375 559.373 599.645 559.165 598.765 559.605C597.834 560.072 597.312 560.625 596.5 561.245L594.18 562.887C593.436 563.46 592.791 563.777 592 564.245L588.25 566.76C587.509 567.255 586.776 567.582 585.997 567.997L584 569.245L583.265 569.605C582.125 570.176 581.164 570.926 579.997 571.497L565.749 578.637L562 580.245L561.217 580.621C560.095 581.184 559.15 581.933 557.997 582.497L555.717 583.621C552.727 585.119 549.201 587.273 546.5 589.245C545.763 589.783 545.061 590.199 544.249 590.606C542.885 591.289 541.928 592.327 540.497 592.997C537.118 594.582 533.721 596.831 530.5 598.745C527.882 600.301 524.97 601.491 522.5 603.245L520.997 603.997L519 605.245L518.265 605.605C517.561 605.958 517.117 606.284 516.5 606.745C515.721 607.327 515.331 607.341 514.5 607.745L513.245 608.75C512.433 609.353 512.751 609.17 512.015 609.355C510.132 609.83 508.66 611.442 506.608 611.856C505.756 612.027 505.691 612.394 505 612.745C504.215 613.144 503.782 613.103 503 613.745L502 613.75L501.5 614.245L499.498 614.997L498.778 615.248C498.082 615.48 497.45 615.572 496.75 615.745C495.69 616.007 495.12 616.244 494 616.25L493.5 616.745C492.396 616.748 491.814 616.439 491 617.245C489.578 617.247 488.201 616.947 487 617.745C485.816 617.748 485.518 617.569 484.5 618.245C483.078 618.247 481.701 617.947 480.5 618.745C479.187 618.748 478.652 618.588 477.5 619.245C476.739 619.679 475.982 619.815 475.125 619.875L475.375 620.403C472.988 620.428 470.772 619.702 468.412 619.565L530.8 582.726L581.484 553.435L612.852 534.884C620.261 530.433 627.754 526.188 634.456 520.693Z"/>
	<path fill="#010101" transform="matrix(0.426758 0 0 0.426758 -3.05176e-05 3.05176e-05)" d="M633.695 501.507L633.382 500.739L634.143 499.601C637.29 502.837 638.742 505.59 638.626 510.164C638.53 513.902 636.907 517.884 634.456 520.693C627.754 526.188 620.261 530.433 612.852 534.884L581.484 553.435L530.8 582.726L468.412 619.565L457.961 624.707L457.946 624.761L456.055 625.19C452.041 625.955 448.15 625.322 444.828 622.839C440.919 619.919 439.978 615.742 439.376 611.189L439.767 610.804C441.227 609.31 441.748 608.166 442.273 606.167C442.584 608.627 442.84 610.773 441.452 612.952L440.985 613.705L440.625 614.253L442.255 614.25L443.5 612.75C442.933 611.609 442.724 611.569 442.885 610.25C443.025 609.105 442.967 608.145 442.877 607L442.755 605.25L443.257 605C443.303 607.181 443.071 609.778 443.938 611.799C444.512 613.176 444.819 613.884 446 614.869L447.518 614.456C449.152 614.505 450.673 613.969 452.119 613.254C456.111 611.277 459.835 608.718 463.715 606.527L501.5 584.471L631.943 508.377C633.191 507.732 634.342 507.114 635.461 506.25C635.26 504.265 634.824 503.149 633.695 501.507Z"/>
	<defs>
		<linearGradient id="gradient_9" gradientUnits="userSpaceOnUse" x1="571.02765" y1="584.65051" x2="409.80112" y2="460.85236">
			<stop offset="0" stop-color="#151923"/>
			<stop offset="1" stop-color="#353C49"/>
		</linearGradient>
	</defs>
	<path fill="url(#gradient_9)" transform="matrix(0.426758 0 0 0.426758 -3.05176e-05 3.05176e-05)" d="M447.625 399.128C450.996 397.449 454.76 397.367 458.329 398.478C464.161 400.294 470.052 405.093 475.5 408.018C476.226 408.408 478.319 409.735 478.985 409.747C482.377 412.189 486.239 414.017 489.885 416.053L511.5 427.977C526.705 436.381 632.608 494.56 634.143 499.601L633.382 500.739L633.695 501.507C634.824 503.149 635.26 504.265 635.461 506.25C634.342 507.114 633.191 507.732 631.943 508.377L501.5 584.471L463.715 606.527C459.835 608.718 456.111 611.277 452.119 613.254C450.673 613.969 449.152 614.505 447.518 614.456C448.296 612.981 448.706 611.563 448.906 609.918C449.719 603.248 449.506 596.27 449.606 589.551L449.688 549.72L448.693 442.797L448.958 422.5C449.093 418.2 449.796 413.468 448.899 409.25C448.576 408.297 448.289 407.543 447.785 406.662L446.132 403.414L448.376 401.922C447.532 401.577 447.076 401.284 446.125 401.502L445.5 401.755C446.064 400.761 446.865 399.976 447.625 399.128Z"/>
	<path fill="#3C4654" transform="matrix(0.426758 0 0 0.426758 -3.05176e-05 3.05176e-05)" d="M447.625 399.128C450.996 397.449 454.76 397.367 458.329 398.478C464.161 400.294 470.052 405.093 475.5 408.018C476.226 408.408 478.319 409.735 478.985 409.747C482.377 412.189 486.239 414.017 489.885 416.053L511.5 427.977C526.705 436.381 632.608 494.56 634.143 499.601L633.382 500.739L633.695 501.507C634.824 503.149 635.26 504.265 635.461 506.25C634.342 507.114 633.191 507.732 631.943 508.377L557 468.963L526.482 451.196L491.13 431.672L459.5 413.077C456.216 411.196 453.314 408.89 449.623 407.875L448.899 409.25C448.576 408.297 448.289 407.543 447.785 406.662L446.132 403.414L448.376 401.922C447.532 401.577 447.076 401.284 446.125 401.502L445.5 401.755C446.064 400.761 446.865 399.976 447.625 399.128Z"/>
	<path fill="#818191" transform="matrix(0.426758 0 0 0.426758 -3.05176e-05 3.05176e-05)" d="M448.64 401.933L451.156 404C450.865 405.426 450.235 406.57 449.623 407.875L448.899 409.25C448.576 408.297 448.289 407.543 447.785 406.662L446.132 403.414L448.376 401.922L448.64 401.933Z"/>
	<path fill="#372623" transform="matrix(0.426758 0 0 0.426758 -3.05176e-05 3.05176e-05)" d="M447.625 399.128C450.996 397.449 454.76 397.367 458.329 398.478C464.161 400.294 470.052 405.093 475.5 408.018C476.226 408.408 478.319 409.735 478.985 409.747C482.377 412.189 486.239 414.017 489.885 416.053L511.5 427.977C526.705 436.381 632.608 494.56 634.143 499.601L633.382 500.739L633.695 501.507C633.528 501.553 629.587 498.448 629.127 498.104C625.469 495.371 621.312 493.242 617.346 490.997L596.689 479.716L560.149 459.837L523.045 437.893L483.953 417.645L470.734 410.032C467.842 408.239 464.626 405.922 461.494 404.603L453.75 401.1C451.773 400.533 450.344 400.938 448.64 401.933L448.376 401.922C447.532 401.577 447.076 401.284 446.125 401.502L445.5 401.755C446.064 400.761 446.865 399.976 447.625 399.128Z"/>
</svg>
